<?xml version="1.0" encoding="UTF-8"?>
<svg version="1.1" xmlns="http://www.w3.org/2000/svg" width="500" height="500">
<path d="M0 0 C165 0 330 0 500 0 C500 165 500 330 500 500 C335 500 170 500 0 500 C0 335 0 170 0 0 Z " fill="#FEFEFE" transform="translate(0,0)"/>
<path d="M0 0 C11.79754402 -0.06819794 23.59495378 -0.12305718 35.39265156 -0.15543652 C40.87276436 -0.17098908 46.35273351 -0.19203342 51.83276367 -0.22631836 C57.1366584 -0.25928778 62.44041632 -0.27693091 67.74440575 -0.28463173 C69.75226172 -0.29010865 71.76011155 -0.30080001 73.7679081 -0.31719017 C100.88016265 -0.52939764 126.98702997 2.87614587 147.37109375 22.31640625 C152.05070845 27.09336806 155.1837362 31.86846307 158.125 37.8125 C158.47175781 38.48603516 158.81851563 39.15957031 159.17578125 39.85351562 C167.08695998 55.6910286 167.40994085 78.10229397 163 95 C159.82124237 104.42125204 155.34037955 112.36159 149 120 C148.46890625 120.64453125 147.9378125 121.2890625 147.390625 121.953125 C137.40632646 132.92596795 120.50106484 140.41052414 106 143 C103.66679538 143.02450845 101.33316801 143.02777581 99 143 C105.94948058 153.2020831 112.94069823 163.37354745 120 173.5 C124.86488564 180.47882181 129.70685745 187.47170164 134.5 194.5 C139.33562086 201.59017807 144.21916152 208.64573137 149.125 215.6875 C159.40343216 230.44797836 159.40343216 230.44797836 163.5 236.375 C163.96293457 237.04104248 164.42586914 237.70708496 164.90283203 238.39331055 C168 242.88462639 168 242.88462639 168 244 C161.15063046 244.25420341 154.30248124 244.4289275 147.44946289 244.54931641 C145.12022455 244.59951202 142.79129987 244.66768752 140.46313477 244.75439453 C137.10875148 244.87616373 133.75853864 244.93249799 130.40234375 244.9765625 C129.36665756 245.02817535 128.33097137 245.07978821 127.26390076 245.13296509 C122.79152265 245.13641034 120.10467564 245.09287998 116.83363342 241.85676575 C115.0311289 239.30689168 113.49229496 236.74074226 112 234 C111.09444582 232.57574605 110.18087435 231.15650427 109.25390625 229.74609375 C108.35453832 228.31129281 107.4574909 226.87503528 106.5625 225.4375 C105.51763962 223.77168828 104.4720269 222.10634828 103.42578125 220.44140625 C102.8735791 219.56242676 102.32137695 218.68344727 101.75244141 217.77783203 C98.60889538 212.79493057 95.42872334 207.83550682 92.25 202.875 C91.24223511 201.30165894 91.24223511 201.30165894 90.21411133 199.6965332 C88.14322542 196.46404467 86.07171686 193.23195603 84 190 C81.92820785 186.7679265 79.85661442 183.53574533 77.78857422 180.30126953 C76.43877321 178.19816641 75.08111551 176.1000834 73.71533203 174.00732422 C70.57730113 169.17585066 67.60517493 164.36308227 64.9609375 159.2421875 C64.47786133 158.3538623 63.99478516 157.46553711 63.49707031 156.55029297 C62.61972794 154.91956015 61.79273554 153.26006459 61.03417969 151.57080078 C59.72265751 148.90831089 59.72265751 148.90831089 56 146 C50.06 145.67 44.12 145.34 38 145 C38 177.67 38 210.34 38 244 C25.46 244 12.92 244 0 244 C0 200.11 0 156.22 0 111 C39.1875 110.5625 39.1875 110.5625 51.48510742 110.43188477 C55.17588715 110.38855384 55.17588715 110.38855384 58.86665344 110.34410095 C60.489398 110.32508871 62.1121624 110.30772001 63.73493958 110.29173279 C93.42242189 110.30631033 93.42242189 110.30631033 118.875 96.375 C125.50638029 85.84280777 126.38634332 74.15055443 125 62 C124.12864372 58.57681463 122.91983485 55.94374677 121 53 C120.484375 51.96875 119.96875 50.9375 119.4375 49.875 C112.4295695 41.60923582 101.39978049 36.81014997 90.69268608 35.77746201 C84.26071501 35.44071515 77.82452388 35.54042936 71.38671875 35.609375 C69.32022147 35.61685006 67.25371703 35.622537 65.18721008 35.62652588 C59.78996665 35.64168262 54.39316467 35.68087695 48.99609375 35.7253418 C43.47206593 35.76651113 37.94796567 35.78458285 32.42382812 35.8046875 C21.61566182 35.84738229 10.80793696 35.91764899 0 36 C0 24.12 0 12.24 0 0 Z " fill="#585F65" transform="translate(214,147)"/>
<path d="M0 0 C49.5 0 99 0 150 0 C150 8.91 150 17.82 150 27 C109.41 27 68.82 27 27 27 C27 147.12 27 267.24 27 391 C67.59 391 108.18 391 150 391 C150 399.91 150 408.82 150 418 C100.5 418 51 418 0 418 C0 280.06 0 142.12 0 0 Z " fill="#5A6167" transform="translate(29,34)"/>
<path d="M0 0 C1.61217285 -0.00135657 3.22434538 -0.00313795 4.83651733 -0.00531006 C9.19808682 -0.00985428 13.55963254 -0.00810714 17.92120242 -0.00493097 C22.49605798 -0.00239136 27.07091157 -0.00474941 31.64576721 -0.00631714 C39.32813887 -0.00813434 47.0105009 -0.00574448 54.69287109 -0.00097656 C63.55992799 0.00446325 72.42696187 0.00270363 81.29401821 -0.00280297 C88.92143527 -0.00734919 96.54884542 -0.0079772 104.17626339 -0.0053643 C108.72543245 -0.00380958 113.27459072 -0.0035856 117.82375908 -0.00690079 C122.10260844 -0.00980138 126.38142831 -0.00776375 130.66027451 -0.00200653 C132.22551868 -0.00069055 133.79076537 -0.00105318 135.35600853 -0.0032692 C160.03780977 -0.03497605 181.81519537 6.27263347 201.08813477 22.12939453 C202.56733398 23.345625 202.56733398 23.345625 204.07641602 24.58642578 C221.02376154 39.05150267 233.83581304 60.93907439 237.08813477 83.12939453 C237.15627739 85.91233916 237.1826867 88.66131843 237.15063477 91.44189453 C237.13000977 93.97876953 237.10938477 96.51564453 237.08813477 99.12939453 C228.17813477 99.12939453 219.26813477 99.12939453 210.08813477 99.12939453 C210.00563477 97.08751953 209.92313477 95.04564453 209.83813477 92.94189453 C208.432817 74.06505855 199.40018755 57.07910266 185.20141602 44.59033203 C172.1190556 34.36385944 157.92016099 28.01970737 141.21492004 27.99568176 C140.23247087 27.99228343 140.23247087 27.99228343 139.23017424 27.98881644 C137.05496105 27.98253144 134.87981106 27.98330224 132.70458984 27.98413086 C131.13684001 27.98113587 129.56909091 27.97773256 128.00134277 27.97395325 C123.75521525 27.96514214 119.5091079 27.96277631 115.26297212 27.96213746 C112.60529704 27.96142515 109.94762704 27.95928736 107.28995323 27.95664024 C98.00417126 27.94739532 88.71840361 27.94330416 79.43261719 27.9440918 C70.80022193 27.94469187 62.1678893 27.93415159 53.53550988 27.91834813 C46.10594034 27.90523526 38.67639116 27.89990949 31.24681014 27.90054721 C26.8176784 27.90080116 22.38860232 27.89800726 17.95948219 27.88736916 C13.78895531 27.87762529 9.61853657 27.8776517 5.44800568 27.88488579 C3.92594684 27.88592396 2.40388104 27.88361488 0.88183403 27.87752533 C-19.05226356 27.80300093 -34.11874553 31.44311805 -49.91186523 44.12939453 C-50.53319336 44.57541016 -51.15452148 45.02142578 -51.79467773 45.48095703 C-65.57036607 55.92485098 -73.37077724 74.55563609 -75.91186523 91.12939453 C-76.63208797 99.27821863 -76.50067524 107.47580858 -76.47827148 115.64892578 C-76.48352069 118.00193017 -76.48980185 120.35493245 -76.49705505 122.70793152 C-76.50740579 127.61715665 -76.50297565 132.52609097 -76.48828125 137.43530273 C-76.47111758 143.6750567 -76.49458858 149.9138876 -76.52977085 156.1535387 C-76.55190802 161.00711477 -76.55026386 165.8604756 -76.54200554 170.71408653 C-76.54119464 173.01220397 -76.54789006 175.31033861 -76.56277657 177.60840797 C-76.69233619 201.22580693 -73.10863413 221.96191612 -56.91186523 240.12939453 C-55.98760742 241.17740234 -55.98760742 241.17740234 -55.04467773 242.24658203 C-39.27756638 259.06047256 -19.82977094 263.09390292 2.08813477 264.12939453 C2.08813477 273.03939453 2.08813477 281.94939453 2.08813477 291.12939453 C-25.1678223 292.23736027 -50.2789681 284.31188614 -70.69702148 265.75048828 C-81.97316609 255.12079182 -90.18850334 243.78360855 -96.34936523 229.56689453 C-96.66768311 228.83631836 -96.98600098 228.10574219 -97.31396484 227.35302734 C-103.74700661 211.54503566 -103.3258228 195.83127511 -103.23999023 179.04736328 C-103.23692715 176.42092497 -103.23505521 173.79448503 -103.23431396 171.16804504 C-103.23064315 165.68708596 -103.21578312 160.20625376 -103.19311523 154.7253418 C-103.16417325 147.71362066 -103.15388046 140.70200095 -103.14943314 133.69022655 C-103.14501309 126.97592387 -103.12973899 120.26165016 -103.11499023 113.54736328 C-103.11310951 112.27488424 -103.11122879 111.0024052 -103.10929108 109.6913662 C-103.10238896 106.07846565 -103.08873964 102.46565476 -103.07299805 98.8527832 C-103.07188019 97.79439743 -103.07076233 96.73601166 -103.0696106 95.64555359 C-103.01702796 86.49747256 -102.31160905 78.18746568 -99.34936523 69.50439453 C-99.08470459 68.72805664 -98.82004395 67.95171875 -98.54736328 67.15185547 C-89.21020692 40.79128828 -70.32274916 20.36010831 -45.16577148 8.27783203 C-30.05092056 1.55644159 -16.34899521 -0.02311365 0 0 Z " fill="#596066" transform="translate(182.911865234375,99.87060546875)"/>
<path d="M0 0 C67.65 0 135.3 0 205 0 C205 69.63 205 139.26 205 211 C196.09 211 187.18 211 178 211 C178 150.28 178 89.56 178 27 C119.26 27 60.52 27 0 27 C0 18.09 0 9.18 0 0 Z " fill="#596066" transform="translate(266,34)"/>
<path d="M0 0 C8.91 0 17.82 0 27 0 C27 62.7 27 125.4 27 190 C4.23 190 -18.54 190 -42 190 C-42 181.09 -42 172.18 -42 163 C-28.14 163 -14.28 163 0 163 C0 109.21 0 55.42 0 0 Z " fill="#596066" transform="translate(444,262)"/>
<path d="M0 0 C52.8 0 105.6 0 160 0 C160 8.91 160 17.82 160 27 C107.2 27 54.4 27 0 27 C0 18.09 0 9.18 0 0 Z " fill="#5B6268" transform="translate(211,424)"/>
<path d="M0 0 C5.46402839 1.88757345 8.2429357 4.94093842 11.0859375 9.890625 C12.89317375 14.0611702 12.81767118 18.73703976 11.27734375 23 C8.83801699 27.58237901 5.61710913 30.69144544 1 33 C-4.35350081 33.66729189 -9.70486528 34.24014129 -14.56640625 31.61328125 C-19.02498038 27.82800929 -21.62688665 24.57466658 -22.2421875 18.6796875 C-22.53516625 12.90628267 -21.95235825 9.48646071 -18 5 C-12.03219434 -0.25735261 -7.81321597 -0.60781737 0 0 Z " fill="#FCFCFC" transform="translate(169,291)"/>
<path d="M0 0 C4.69994029 1.71728588 7.20959499 3.86606666 10 8 C11.56840852 12.70522555 11.54895539 16.52648816 9.8125 21.1875 C7.20995401 25.22593343 4.55880664 27.48039779 0 29 C-5.75649445 29.57564945 -8.98772095 29.17093913 -13.5234375 25.484375 C-16.80027743 22.1901973 -17.85967794 19.10253047 -18.4375 14.5625 C-17.72602924 8.76909525 -15.59058404 5.40983586 -11.25 1.5625 C-7.24874388 -0.36118083 -4.3544501 -0.71412982 0 0 Z " fill="#5B6267" transform="translate(229,41)"/>
<path d="M0 0 C5.46402839 1.88757345 8.2429357 4.94093842 11.0859375 9.890625 C12.89317375 14.0611702 12.81767118 18.73703976 11.27734375 23 C8.83801699 27.58237901 5.61710913 30.69144544 1 33 C-4.35350081 33.66729189 -9.70486528 34.24014129 -14.56640625 31.61328125 C-19.02498038 27.82800929 -21.62688665 24.57466658 -22.2421875 18.6796875 C-22.53516625 12.90628267 -21.95235825 9.48646071 -18 5 C-12.03219434 -0.25735261 -7.81321597 -0.60781737 0 0 Z M-17.375 9.75 C-18.73494071 14.64578657 -18.51165247 18.64412095 -16.75 23.3125 C-14.9661622 26.05196519 -13.75551996 27.30504044 -11 29 C-6.44345922 29.90014358 -1.89338293 30.05077796 2.23828125 27.7578125 C6.27947554 24.39433402 7.80425297 22.0749185 8.3125 16.6875 C7.88343902 11.62458039 5.91697103 8.7171166 2.1640625 5.35546875 C-4.49036552 1.18744254 -12.76373899 3.88112236 -17.375 9.75 Z " fill="#62696E" transform="translate(169,291)"/>
<path d="M0 0 C10.23 0 20.46 0 31 0 C31 1.98 31 3.96 31 6 C20.77 6 10.54 6 0 6 C0 4.02 0 2.04 0 0 Z " fill="#757A7F" transform="translate(392,309)"/>
<path d="M0 0 C10.23 0 20.46 0 31 0 C31 1.98 31 3.96 31 6 C20.77 6 10.54 6 0 6 C0 4.02 0 2.04 0 0 Z " fill="#696F74" transform="translate(392,224)"/>
<path d="M0 0 C9.9 0 19.8 0 30 0 C30 1.65 30 3.3 30 5 C20.1 5 10.2 5 0 5 C0 3.35 0 1.7 0 0 Z " fill="#5A6167" transform="translate(392,281)"/>
<path d="M0 0 C9.9 0 19.8 0 30 0 C30 1.65 30 3.3 30 5 C20.1 5 10.2 5 0 5 C0 3.35 0 1.7 0 0 Z " fill="#5A6167" transform="translate(392,253)"/>
</svg>
