<?xml version="1.0" standalone="no"?>
<!DOCTYPE svg PUBLIC "-//W3C//DTD SVG 20010904//EN"
 "http://www.w3.org/TR/2001/REC-SVG-20010904/DTD/svg10.dtd">
<svg version="1.0" xmlns="http://www.w3.org/2000/svg"
 width="1600.000000pt" height="753.000000pt" viewBox="0 0 1600.000000 753.000000"
 preserveAspectRatio="xMidYMid meet">

<g transform="translate(0.000000,753.000000) scale(0.100000,-0.100000)"
fill="#000000" stroke="none">
<path d="M10 3770 l0 -3760 7995 0 7995 0 0 3760 0 3760 -7995 0 -7995 0 0
-3760z m3945 2464 c292 -40 593 -141 841 -284 235 -135 392 -261 587 -469 76
-81 219 -269 215 -281 -4 -10 -185 -130 -196 -130 -4 0 -35 37 -69 83 -333
450 -794 728 -1383 833 -147 27 -496 24 -655 -4 -471 -85 -854 -286 -1176
-619 -47 -48 -105 -112 -128 -140 l-43 -53 859 0 c835 0 1185 -9 1308 -31 373
-68 609 -325 631 -689 18 -292 -115 -555 -347 -687 -135 -77 -294 -116 -521
-129 l-118 -7 18 -23 c9 -12 60 -78 113 -146 52 -67 235 -304 407 -526 197
-255 307 -404 299 -408 -7 -2 -87 -3 -177 -2 l-165 3 -128 165 c-643 828 -927
1200 -927 1214 0 2 177 6 393 9 429 5 474 11 595 67 286 134 347 545 113 762
-64 60 -119 90 -214 115 -56 16 -169 17 -1193 20 l-1131 4 -47 -106 c-84 -187
-143 -389 -171 -580 -21 -147 -21 -444 0 -590 126 -867 751 -1554 1600 -1761
328 -80 720 -74 1045 16 197 54 446 166 608 274 l83 55 69 -95 c39 -51 70 -97
70 -101 0 -10 -111 -84 -215 -143 -246 -142 -520 -237 -820 -287 -156 -25
-544 -25 -700 0 -690 114 -1269 492 -1639 1071 -244 382 -366 803 -366 1266 0
648 255 1247 722 1696 525 504 1233 735 1953 638z m1953 -1474 c45 -50 82 -98
82 -106 0 -9 -24 -67 -54 -130 -235 -493 -654 -960 -1059 -1179 -56 -30 -85
-51 -80 -58 4 -7 115 -176 248 -377 133 -201 245 -371 249 -377 6 -10 -25 -13
-142 -13 l-149 0 -109 152 c-60 83 -202 280 -315 437 -114 157 -206 287 -205
288 1 2 42 14 92 28 118 34 326 138 444 222 119 85 380 344 477 474 151 201
281 416 378 622 28 58 53 106 56 107 3 0 42 -41 87 -90z m574 -699 c85 -27
165 -97 199 -173 33 -75 33 -211 1 -283 -51 -113 -150 -175 -313 -197 l-97
-13 224 -290 224 -290 -76 -3 c-64 -2 -79 0 -89 15 -7 10 -109 142 -227 293
-206 265 -215 275 -251 278 l-37 3 0 -295 0 -296 -65 0 -65 0 0 641 0 642 253
-6 c219 -4 261 -8 319 -26z m1728 -36 l0 -65 -300 0 -300 0 0 -200 0 -200 300
0 300 0 0 -60 0 -60 -300 0 -300 0 0 -255 0 -255 300 0 300 0 0 -60 0 -60
-365 0 -365 0 0 640 0 640 365 0 365 0 0 -65z m1295 -49 c79 -169 79 -156 -2
-156 l-68 0 -102 -218 c-56 -119 -105 -225 -108 -234 -7 -17 11 -18 282 -18
l290 0 33 -72 c19 -40 75 -162 126 -270 l93 -198 -68 0 -68 0 -53 113 c-29 61
-73 156 -98 210 l-46 97 -280 -2 -280 -3 -98 -205 -97 -205 -70 -3 -70 -3 38
83 c21 46 100 214 176 373 76 160 152 322 170 360 18 39 63 133 99 210 37 76
79 165 93 197 14 32 32 58 40 58 8 0 37 -49 68 -114z m1813 52 l-3 -63 -142
-3 -143 -3 0 -574 0 -575 -65 0 -65 0 0 575 0 575 -140 0 -140 0 0 65 0 65
350 0 351 0 -3 -62z m792 -1433 l0 -1495 -65 0 -65 0 0 1495 0 1495 65 0 65 0
0 -1495z m1038 1003 l211 -493 71 -3 c38 -2 70 -5 70 -8 0 -4 -28 -69 -62
-145 -42 -96 -66 -139 -76 -137 -12 3 -531 1191 -548 1256 -6 21 -4 22 58 22
l65 0 211 -492z m782 485 c0 -5 -30 -77 -67 -160 l-67 -153 -63 0 c-38 0 -63
4 -63 11 0 5 20 56 44 112 25 56 54 123 65 150 l20 47 66 0 c36 0 65 -3 65 -7z
m1450 -58 l0 -65 -300 0 -300 0 0 -200 0 -200 298 -2 297 -3 3 -57 3 -58 -301
0 -300 0 0 -255 0 -255 298 -2 297 -3 3 -57 3 -58 -366 0 -365 0 0 640 0 640
365 0 365 0 0 -65z m-8785 -2133 c75 -29 125 -78 97 -96 -5 -3 -27 8 -48 23
-78 57 -186 78 -218 42 -31 -34 -12 -71 97 -193 206 -230 230 -268 230 -358 0
-65 -18 -105 -69 -150 -134 -117 -411 -112 -534 11 -34 34 -37 47 -15 55 9 4
32 -9 56 -31 52 -47 115 -75 183 -82 45 -5 57 -2 74 15 32 32 17 60 -121 215
-159 178 -190 229 -195 317 -3 53 0 75 17 107 35 69 122 126 218 143 62 11
177 2 228 -18z m3060 -5 c3 -7 1 -141 -4 -297 -11 -330 -17 -357 -90 -430 -64
-64 -134 -83 -301 -83 -205 0 -296 37 -347 140 l-28 58 -3 308 -4 307 176 0
176 0 0 -392 0 -391 96 6 c148 10 213 45 256 140 22 50 23 64 26 337 1 157 5
291 7 298 6 16 34 16 40 -1z m-1450 -17 c0 -12 -20 -16 -112 -18 l-113 -3 0
-374 0 -375 -177 0 -178 0 3 375 3 375 -115 0 c-110 0 -136 6 -121 30 4 7 145
9 408 8 350 -3 402 -5 402 -18z m2735 -16 c82 -39 151 -108 193 -193 30 -61
32 -73 32 -166 0 -94 -2 -105 -33 -168 -56 -114 -149 -190 -264 -217 -24 -5
-145 -10 -270 -10 l-228 0 0 396 0 396 253 -4 252 -3 65 -31z"/>
<path d="M6040 3745 l0 -217 188 4 c173 3 191 5 236 27 148 73 151 289 6 371
-43 24 -54 25 -237 28 l-193 4 0 -217z"/>
<path d="M10728 1626 c-3 -129 -3 -293 -1 -363 l6 -128 71 6 c133 11 237 84
294 207 23 49 27 70 27 152 0 89 -2 99 -34 158 -63 116 -161 181 -297 197
l-61 7 -5 -236z"/>
</g>
</svg>
